<svg width="34" height="34" viewBox="0 0 34 34" fill="none" xmlns="http://www.w3.org/2000/svg">
<path d="M6.66618 0.00848389C3.0038 0.00848389 0.00636292 3.00586 0.00636292 6.6683V27.3349C0.00636292 30.9973 3.00374 33.9936 6.66618 33.9936H27.3328C30.9952 33.9936 33.9915 30.9973 33.9915 27.3349V6.6683C33.9915 3.00592 30.9952 0.00848389 27.3328 0.00848389H6.66618ZM8.34123 5.61672C10.0973 5.61672 11.1789 6.76952 11.2123 8.28487C11.2123 9.76676 10.0972 10.952 8.30726 10.952H8.27431C6.5517 10.952 5.43831 9.76682 5.43831 8.28487C5.43831 6.76955 6.5854 5.61672 8.34119 5.61672H8.34123ZM23.4739 12.6993C26.8511 12.6993 29.3828 14.9066 29.3828 19.6501V28.5053H24.2504V20.2438C24.2504 18.1677 23.5076 16.7514 21.6502 16.7514C20.2323 16.7514 19.3871 17.706 19.016 18.6282C18.8805 18.9582 18.8472 19.419 18.8472 19.8805V28.5053H13.7148C13.7148 28.5053 13.7821 14.5105 13.7148 13.0614H18.8482V15.2484C19.5303 14.1961 20.7502 12.6992 23.4739 12.6992V12.6993ZM5.74104 13.0625H10.8734V28.5054H5.74104V13.0625Z" fill="#0A7CE6"/>
</svg>
