<svg width="40" height="40" viewBox="0 0 40 40" fill="none" xmlns="http://www.w3.org/2000/svg">
<path d="M18.42 24.0652H12.7692C12.4348 24.0652 12.164 24.336 12.164 24.6704V33.444C12.164 33.7784 12.4348 34.0492 12.7692 34.0492H18.42C18.7544 34.0492 19.0248 33.7784 19.0248 33.444V24.67C19.0248 24.3356 18.754 24.0652 18.42 24.0652Z" fill="#DC3D3D"/>
<path d="M27.2308 5.9512H21.58C21.2456 5.9512 20.9748 6.222 20.9748 6.5564V33.4436C20.9748 33.778 21.2456 34.0488 21.58 34.0488H27.2308C27.5652 34.0488 27.836 33.778 27.836 33.4436V6.5564C27.836 6.222 27.5652 5.9512 27.2308 5.9512Z" fill="#42DCC0"/>
<path d="M36.0868 14.1196H30.436C30.1016 14.1196 29.8308 14.3904 29.8308 14.7248V33.4436C29.8308 33.778 30.1016 34.0488 30.436 34.0488H36.0864C36.4208 34.0488 36.6916 33.778 36.6916 33.4436V14.7248C36.6916 14.3908 36.4208 14.1196 36.0868 14.1196Z" fill="#63BB44"/>
<path d="M9.56401 14.1196H3.91321C3.57881 14.1196 3.30801 14.3904 3.30801 14.7248V33.4436C3.30801 33.778 3.57881 34.0488 3.91321 34.0488H9.56401C9.89841 34.0488 10.1692 33.778 10.1692 33.4436V14.7248C10.1692 14.3908 9.89841 14.1196 9.56401 14.1196Z" fill="#717171"/>
</svg>
