<svg width="27" height="33" viewBox="0 0 27 33" fill="none" xmlns="http://www.w3.org/2000/svg">
<path d="M16.75 0.25H3.75C2.88805 0.25 2.0614 0.59241 1.4519 1.2019C0.84241 1.8114 0.5 2.63805 0.5 3.5V29.5C0.5 30.362 0.84241 31.1886 1.4519 31.7981C2.0614 32.4076 2.88805 32.75 3.75 32.75H23.25C24.112 32.75 24.9386 32.4076 25.5481 31.7981C26.1576 31.1886 26.5 30.362 26.5 29.5V10L16.75 0.25ZM9.43425 23.3088C8.93213 23.78 8.19112 23.9913 7.32825 23.9913C7.16094 23.9931 6.99371 23.9833 6.82775 23.962V26.2792H5.375V19.8832C6.03061 19.7854 6.69307 19.7409 7.35588 19.75C8.261 19.75 8.9045 19.9223 9.33838 20.2684C9.75113 20.5966 10.0306 21.1345 10.0306 21.7682C10.029 22.4052 9.81775 22.9431 9.43425 23.3088ZM15.6206 25.5106C14.9381 26.0777 13.8998 26.3475 12.6306 26.3475C11.8701 26.3475 11.3322 26.2987 10.9666 26.25V19.8849C11.6225 19.7892 12.2847 19.7441 12.9475 19.75C14.1776 19.75 14.9771 19.971 15.6011 20.4422C16.2755 20.9427 16.698 21.7406 16.698 22.8862C16.698 24.1261 16.2446 24.9825 15.6206 25.5106ZM21.625 21.0013H19.1355V22.4816H21.4625V23.6744H19.1355V26.2809H17.6632V19.7987H21.625V21.0013ZM16.75 11.625H15.125V3.5L23.25 11.625H16.75Z" fill="#F54F4F"/>
</svg>
